<svg width="11" height="10" viewBox="0 0 11 10" fill="none" xmlns="http://www.w3.org/2000/svg">
<path d="M10.2969 0.160449C10.615 0.323521 10.8493 0.595561 10.9483 0.916747C11.0473 1.23793 11.0029 1.58196 10.8249 1.87319L6.30306 9.26425C6.18854 9.45149 6.0297 9.61291 5.83819 9.73667C5.64667 9.86043 5.42732 9.9434 5.19623 9.9795C4.96513 10.0156 4.72814 10.0039 4.50261 9.9453C4.27709 9.88668 4.06875 9.78262 3.89287 9.64074L0.46596 6.87763C0.19235 6.65695 0.0257234 6.34581 0.00273666 6.01268C-0.0202501 5.67954 0.102286 5.35169 0.343388 5.10125C0.58449 4.85081 0.924408 4.69829 1.28836 4.67725C1.65232 4.65621 2.0105 4.76837 2.28411 4.98905L4.61612 6.86972L8.42529 0.643741C8.5135 0.499519 8.63189 0.372614 8.77369 0.270273C8.91549 0.167932 9.07792 0.0921587 9.25172 0.0472803C9.42551 0.002402 9.60726 -0.0107025 9.78659 0.0087151C9.96592 0.0281327 10.1393 0.0796922 10.2969 0.160449Z" fill="#FDC739"/>
</svg>
