<svg width="43" height="44" viewBox="0 0 43 44" fill="none" xmlns="http://www.w3.org/2000/svg">
<path fill-rule="evenodd" clip-rule="evenodd" d="M21.5 16.9062C23.1245 16.9062 24.6824 16.2609 25.831 15.1123C26.9797 13.9636 27.625 12.4057 27.625 10.7812C27.625 9.1568 26.9797 7.59888 25.831 6.45022C24.6824 5.30156 23.1245 4.65625 21.5 4.65625C19.8755 4.65625 18.3176 5.30156 17.169 6.45022C16.0203 7.59888 15.375 9.1568 15.375 10.7812C15.375 12.4057 16.0203 13.9636 17.169 15.1123C18.3176 16.2609 19.8755 16.9062 21.5 16.9062ZM21.5 21.5C24.3428 21.5 27.0691 20.3707 29.0793 18.3605C31.0895 16.3504 32.2188 13.624 32.2188 10.7812C32.2188 7.93846 31.0895 5.2121 29.0793 3.20195C27.0691 1.19179 24.3428 0.0625 21.5 0.0625C18.6572 0.0625 15.9309 1.19179 13.9207 3.20195C11.9105 5.2121 10.7812 7.93846 10.7812 10.7812C10.7812 13.624 11.9105 16.3504 13.9207 18.3605C15.9309 20.3707 18.6572 21.5 21.5 21.5ZM24.5625 25.2516C24.571 24.6857 24.3586 24.1388 23.9703 23.7271C23.582 23.3153 23.0485 23.0712 22.4831 23.0466C22.1555 23.0367 21.8277 23.0316 21.5 23.0312C9.70938 23.0312 0.0625 29.1562 0.0625 35.2812C0.0625 37.3118 0.869138 39.2592 2.30496 40.695C3.74079 42.1309 5.68819 42.9375 7.71875 42.9375H14.6094C15.2185 42.9375 15.8028 42.6955 16.2335 42.2648C16.6643 41.834 16.9062 41.2498 16.9062 40.6406C16.9062 40.0314 16.6643 39.4472 16.2335 39.0165C15.8028 38.5857 15.2185 38.3437 14.6094 38.3437H7.71875C6.90652 38.3437 6.12757 38.0211 5.55324 37.4468C4.97891 36.8724 4.65625 36.0935 4.65625 35.2812C4.65625 34.6565 5.33 32.8037 8.69875 30.8131C11.8164 28.9725 16.355 27.625 21.5 27.625C21.6776 27.625 21.8583 27.625 22.0359 27.6311C23.3896 27.6556 24.5625 26.6052 24.5625 25.2516ZM35.5569 26.1917C36.886 26.5041 37.9334 27.5515 38.2488 28.8806L29.6034 37.523C28.9013 38.2263 27.99 38.683 27.0064 38.8246L25.3832 39.0542L25.6129 37.4311C25.7545 36.4475 26.2112 35.5362 26.9145 34.8341L35.5569 26.1917ZM32.8527 40.7692L42.2484 31.3766C42.467 31.1583 42.6403 30.8991 42.7586 30.6137C42.8768 30.3284 42.9376 30.0225 42.9375 29.7136C42.9367 27.5355 42.0711 25.4468 40.5309 23.9066C38.9907 22.3664 36.902 21.5008 34.7239 21.5C34.4152 21.4993 34.1094 21.5595 33.824 21.6773C33.5387 21.795 33.2794 21.9679 33.0609 22.186L23.6652 31.5848C22.2602 32.9906 21.3489 34.8142 21.0682 36.7819L20.5476 40.4262C20.4807 40.8964 20.524 41.3757 20.6743 41.8262C20.8245 42.2768 21.0774 42.6862 21.4131 43.0221C21.7487 43.3581 22.1579 43.6114 22.6083 43.762C23.0587 43.9126 23.538 43.9564 24.0082 43.8899L27.6556 43.3693C29.6233 43.0886 31.4468 42.1773 32.8527 40.7723V40.7692Z" fill="black"/>
</svg>
