<svg width="25" height="25" viewBox="0 0 25 25" fill="none" xmlns="http://www.w3.org/2000/svg">
<path fill-rule="evenodd" clip-rule="evenodd" d="M9.02816 9.80929C8.67482 9.80929 8.32494 9.87889 7.9985 10.0141C7.67206 10.1493 7.37545 10.3475 7.1256 10.5974C6.87575 10.8472 6.67756 11.1438 6.54235 11.4703C6.40713 11.7967 6.33753 12.1466 6.33753 12.4999C6.33753 12.8533 6.40713 13.2031 6.54235 13.5296C6.67756 13.856 6.87575 14.1526 7.1256 14.4025C7.37545 14.6523 7.67206 14.8505 7.9985 14.9857C8.32494 15.1209 8.67482 15.1905 9.02816 15.1905H11.7188V12.5541C11.7184 12.518 11.7184 12.4819 11.7188 12.4458V9.80929H9.02816ZM11.7188 8.24679H9.02816C8.31442 8.24679 7.62992 7.96326 7.12523 7.45858C6.62054 6.95389 6.33701 6.26938 6.33701 5.55565C6.33701 4.84191 6.62054 4.15741 7.12523 3.65272C7.62992 3.14803 8.31442 2.8645 9.02816 2.8645H11.7188V8.24679ZM13.2813 2.8645V8.24679H15.9719C16.6765 8.23293 17.3475 7.94331 17.8409 7.44013C18.3343 6.93695 18.6106 6.26035 18.6106 5.55565C18.6106 4.85094 18.3343 4.17434 17.8409 3.67117C17.3475 3.16799 16.6765 2.87836 15.9719 2.8645H13.2813ZM15.9719 9.80825C15.2656 9.80816 14.5877 10.0858 14.0843 10.5812C13.5809 11.0765 13.2925 11.75 13.2813 12.4562V12.5426C13.2899 13.0728 13.455 13.5887 13.7559 14.0254C14.0567 14.462 14.4799 14.8001 14.9722 14.997C15.4646 15.194 16.0041 15.2411 16.5231 15.1324C17.0421 15.0237 17.5175 14.764 17.8894 14.386C18.2613 14.0081 18.5133 13.5286 18.6136 13.0079C18.7139 12.4872 18.6581 11.9485 18.4533 11.4594C18.2484 10.9703 17.9036 10.5526 17.4621 10.2588C17.0206 9.96508 16.5022 9.80832 15.9719 9.80825ZM9.02816 16.753C8.49575 16.7528 7.97524 16.9105 7.53247 17.2062C7.08969 17.5018 6.74453 17.9221 6.54064 18.4139C6.33676 18.9058 6.2833 19.447 6.38704 19.9692C6.49078 20.4914 6.74706 20.9711 7.12345 21.3476C7.49985 21.7242 7.97946 21.9806 8.50162 22.0846C9.02378 22.1885 9.56503 22.1353 10.0569 21.9316C10.5488 21.7279 10.9693 21.3829 11.2651 20.9402C11.5609 20.4976 11.7188 19.9771 11.7188 19.4447V16.753H9.02816Z" fill="black"/>
</svg>
