<svg width="26" height="25" viewBox="0 0 26 25" fill="none" xmlns="http://www.w3.org/2000/svg">
<path d="M12.8571 2.08325C11.4501 2.08325 10.0568 2.35269 8.75693 2.87617C7.45701 3.39966 6.27588 4.16695 5.28096 5.13422C3.27165 7.08773 2.14282 9.73725 2.14282 12.4999C2.14282 17.1041 5.21782 21.0103 9.47139 22.3958C10.0071 22.4791 10.1785 22.1562 10.1785 21.8749V20.1145C7.21068 20.7395 6.57854 18.7187 6.57854 18.7187C6.08568 17.5103 5.38925 17.1874 5.38925 17.1874C4.41425 16.5416 5.46425 16.5624 5.46425 16.5624C6.53568 16.6353 7.10354 17.6353 7.10354 17.6353C8.03568 19.2187 9.61068 18.7499 10.2214 18.4999C10.3178 17.8228 10.5964 17.3645 10.8964 17.1041C8.51782 16.8437 6.02139 15.9478 6.02139 11.9791C6.02139 10.8228 6.42854 9.89575 7.12496 9.15617C7.01782 8.89575 6.64282 7.81242 7.23211 6.40617C7.23211 6.40617 8.13211 6.12492 10.1785 7.46867C11.025 7.2395 11.9464 7.12492 12.8571 7.12492C13.7678 7.12492 14.6892 7.2395 15.5357 7.46867C17.5821 6.12492 18.4821 6.40617 18.4821 6.40617C19.0714 7.81242 18.6964 8.89575 18.5892 9.15617C19.2857 9.89575 19.6928 10.8228 19.6928 11.9791C19.6928 15.9583 17.1857 16.8333 14.7964 17.0937C15.1821 17.4166 15.5357 18.052 15.5357 19.0208V21.8749C15.5357 22.1562 15.7071 22.4895 16.2535 22.3958C20.5071 20.9999 23.5714 17.1041 23.5714 12.4999C23.5714 11.132 23.2943 9.77744 22.7558 8.51363C22.2174 7.24982 21.4282 6.1015 20.4332 5.13422C19.4383 4.16695 18.2572 3.39966 16.9573 2.87617C15.6574 2.35269 14.2641 2.08325 12.8571 2.08325Z" fill="black"/>
</svg>
