<svg width="27" height="25" viewBox="0 0 27 25" fill="none" xmlns="http://www.w3.org/2000/svg">
<path d="M13.1633 13.5417H21.3904M10.3376 7.57082L15.8212 2.36353M18.2454 17.3375L15.6106 19.8531C15.2855 20.1638 14.8989 20.4103 14.473 20.5786C14.0472 20.7468 13.5905 20.8334 13.1293 20.8334C12.6681 20.8334 12.2114 20.7468 11.7856 20.5786C11.3598 20.4103 10.9732 20.1638 10.648 19.8531L6.51258 15.9083C5.85425 15.2793 5.48474 14.4285 5.48474 13.5417C5.48474 12.6548 5.85425 11.804 6.51258 11.175L10.648 7.23019C10.9732 6.91953 11.3598 6.67298 11.7856 6.50474C12.2114 6.3365 12.6681 6.24989 13.1293 6.24989C13.5905 6.24989 14.0472 6.3365 14.473 6.50474C14.8989 6.67298 15.2855 6.91953 15.6106 7.23019L18.1357 9.63957" stroke="black" stroke-width="2" stroke-linecap="round" stroke-linejoin="round"/>
</svg>
