<svg width="18" height="17" viewBox="0 0 18 17" fill="none" xmlns="http://www.w3.org/2000/svg">
<path d="M3.09351 2.14282C3.35872 2.14282 3.61308 2.03747 3.80061 1.84993C3.98815 1.66239 4.09351 1.40804 4.09351 1.14282C4.09351 0.877606 3.98815 0.623252 3.80061 0.435716C3.61308 0.248179 3.35872 0.142822 3.09351 0.142822H1.09351C0.828289 0.142822 0.573936 0.248179 0.386399 0.435716C0.198863 0.623252 0.0935059 0.877606 0.0935059 1.14282V15.1428C0.0935059 15.408 0.198863 15.6624 0.386399 15.8499C0.573936 16.0375 0.828289 16.1428 1.09351 16.1428H3.09351C3.35872 16.1428 3.61308 16.0375 3.80061 15.8499C3.98815 15.6624 4.09351 15.408 4.09351 15.1428C4.09351 14.8776 3.98815 14.6233 3.80061 14.4357C3.61308 14.2482 3.35872 14.1428 3.09351 14.1428H2.09351V2.14282H3.09351ZM16.9135 7.56282L14.0935 3.56282C13.9406 3.34723 13.7085 3.20096 13.448 3.15599C13.1876 3.11102 12.9199 3.171 12.7035 3.32282C12.5954 3.39861 12.5033 3.49507 12.4326 3.60663C12.3619 3.71819 12.3141 3.84264 12.2917 3.97281C12.2694 4.10297 12.2731 4.23627 12.3026 4.365C12.3321 4.49372 12.3868 4.61534 12.4635 4.72282L14.1835 7.14282H6.09351C5.82829 7.14282 5.57394 7.24818 5.3864 7.43572C5.19886 7.62325 5.09351 7.87761 5.09351 8.14282C5.09351 8.40804 5.19886 8.66239 5.3864 8.84993C5.57394 9.03747 5.82829 9.14282 6.09351 9.14282H14.0935L12.2935 11.5428C12.2147 11.6479 12.1574 11.7674 12.1248 11.8946C12.0922 12.0219 12.085 12.1542 12.1036 12.2842C12.1221 12.4142 12.1661 12.5393 12.233 12.6523C12.2999 12.7653 12.3884 12.864 12.4935 12.9428C12.6666 13.0726 12.8771 13.1428 13.0935 13.1428C13.2488 13.1428 13.4019 13.1067 13.5407 13.0372C13.6796 12.9678 13.8004 12.867 13.8935 12.7428L16.8935 8.74282C17.0216 8.57369 17.0925 8.36821 17.0961 8.15609C17.0997 7.94397 17.0358 7.7362 16.9135 7.56282Z" fill="#9D9D9D"/>
</svg>
