<svg width="43" height="43" viewBox="0 0 43 43" fill="none" xmlns="http://www.w3.org/2000/svg">
<path fill-rule="evenodd" clip-rule="evenodd" d="M27.625 10.7812C27.625 12.4057 26.9797 13.9636 25.831 15.1123C24.6824 16.2609 23.1245 16.9062 21.5 16.9062C19.8755 16.9062 18.3176 16.2609 17.169 15.1123C16.0203 13.9636 15.375 12.4057 15.375 10.7812C15.375 9.1568 16.0203 7.59888 17.169 6.45022C18.3176 5.30156 19.8755 4.65625 21.5 4.65625C23.1245 4.65625 24.6824 5.30156 25.831 6.45022C26.9797 7.59888 27.625 9.1568 27.625 10.7812ZM32.2188 10.7812C32.2188 13.624 31.0895 16.3504 29.0793 18.3605C27.0691 20.3707 24.3428 21.5 21.5 21.5C18.6572 21.5 15.9309 20.3707 13.9207 18.3605C11.9105 16.3504 10.7812 13.624 10.7812 10.7812C10.7812 7.93846 11.9105 5.2121 13.9207 3.20195C15.9309 1.19179 18.6572 0.0625 21.5 0.0625C24.3428 0.0625 27.0691 1.19179 29.0793 3.20195C31.0895 5.2121 32.2188 7.93846 32.2188 10.7812ZM4.65625 35.2812C4.65625 34.6565 5.33 32.8037 8.69875 30.8131C11.8164 28.9725 16.355 27.625 21.5 27.625C26.645 27.625 31.1836 28.9725 34.3013 30.8131C37.67 32.8037 38.3438 34.6565 38.3438 35.2812C38.3438 36.0935 38.0211 36.8724 37.4468 37.4468C36.8724 38.0211 36.0935 38.3437 35.2812 38.3437H7.71875C6.90652 38.3437 6.12757 38.0211 5.55324 37.4468C4.97891 36.8724 4.65625 36.0935 4.65625 35.2812ZM21.5 23.0312C9.70938 23.0312 0.0625 29.1562 0.0625 35.2812C0.0625 37.3118 0.869138 39.2592 2.30496 40.695C3.74079 42.1309 5.68819 42.9375 7.71875 42.9375H35.2812C37.3118 42.9375 39.2592 42.1309 40.695 40.695C42.1309 39.2592 42.9375 37.3118 42.9375 35.2812C42.9375 29.1562 33.2906 23.0312 21.5 23.0312Z" fill="black"/>
</svg>
