<svg width="24" height="24" viewBox="0 0 24 24" fill="none" xmlns="http://www.w3.org/2000/svg">
<path d="M12.0002 0C13.1018 0 14.1643 0.140625 15.1877 0.421875C16.2112 0.703125 17.1682 1.10547 18.0588 1.62891C18.9495 2.15234 19.7581 2.77734 20.4846 3.50391C21.2112 4.23047 21.8362 5.04297 22.3596 5.94141C22.8831 6.83984 23.2854 7.79688 23.5667 8.8125C23.8479 9.82812 23.9924 10.8906 24.0002 12C24.0002 13.1016 23.8596 14.1641 23.5784 15.1875C23.2971 16.2109 22.8948 17.168 22.3713 18.0586C21.8479 18.9492 21.2229 19.7578 20.4963 20.4844C19.7698 21.2109 18.9573 21.8359 18.0588 22.3594C17.1604 22.8828 16.2034 23.2852 15.1877 23.5664C14.1721 23.8477 13.1096 23.9922 12.0002 24C10.8987 24 9.83618 23.8594 8.81274 23.5781C7.78931 23.2969 6.83228 22.8945 5.94165 22.3711C5.05103 21.8477 4.24243 21.2227 3.51587 20.4961C2.78931 19.7695 2.16431 18.957 1.64087 18.0586C1.11743 17.1602 0.715088 16.207 0.433838 15.1992C0.152588 14.1914 0.00805664 13.125 0.000244141 12C0.000244141 10.8984 0.140869 9.83594 0.422119 8.8125C0.703369 7.78906 1.10571 6.83203 1.62915 5.94141C2.15259 5.05078 2.77759 4.24219 3.50415 3.51562C4.23071 2.78906 5.04321 2.16406 5.94165 1.64062C6.84009 1.11719 7.79321 0.714844 8.80103 0.433594C9.80884 0.152344 10.8752 0.0078125 12.0002 0ZM12.0002 22.5C12.9612 22.5 13.887 22.375 14.7776 22.125C15.6682 21.875 16.5042 21.5234 17.2854 21.0703C18.0667 20.6172 18.7776 20.0664 19.4182 19.418C20.0588 18.7695 20.6057 18.0625 21.0588 17.2969C21.512 16.5312 21.8674 15.6953 22.1252 14.7891C22.3831 13.8828 22.5081 12.9531 22.5002 12C22.5002 11.0391 22.3752 10.1133 22.1252 9.22266C21.8752 8.33203 21.5237 7.49609 21.0706 6.71484C20.6174 5.93359 20.0667 5.22266 19.4182 4.58203C18.7698 3.94141 18.0627 3.39453 17.2971 2.94141C16.5315 2.48828 15.6956 2.13281 14.7893 1.875C13.8831 1.61719 12.9534 1.49219 12.0002 1.5C11.0393 1.5 10.1135 1.625 9.2229 1.875C8.33228 2.125 7.49634 2.47656 6.71509 2.92969C5.93384 3.38281 5.2229 3.93359 4.58228 4.58203C3.94165 5.23047 3.39478 5.9375 2.94165 6.70312C2.48853 7.46875 2.13306 8.30469 1.87524 9.21094C1.61743 10.1172 1.49243 11.0469 1.50024 12C1.50024 12.9609 1.62524 13.8867 1.87524 14.7773C2.12524 15.668 2.47681 16.5039 2.92993 17.2852C3.38306 18.0664 3.93384 18.7773 4.58228 19.418C5.23071 20.0586 5.93774 20.6055 6.70337 21.0586C7.46899 21.5117 8.30493 21.8672 9.21118 22.125C10.1174 22.3828 11.0471 22.5078 12.0002 22.5ZM18.9963 12.1875L19.5588 10.5H20.4377L19.4417 13.5H18.5627L18.0002 11.8125L17.4377 13.5H16.5588L15.5627 10.5H16.4417L17.0042 12.1875L17.5667 10.5H18.4338L18.9963 12.1875ZM13.5588 10.5H14.4377L13.4417 13.5H12.5627L12.0002 11.8125L11.4377 13.5H10.5588L9.56274 10.5H10.4417L11.0042 12.1875L11.5667 10.5H12.4338L12.9963 12.1875L13.5588 10.5ZM7.55884 10.5H8.43774L7.44165 13.5H6.56274L6.00024 11.8125L5.43774 13.5H4.55884L3.56274 10.5H4.44165L5.00415 12.1875L5.56665 10.5H6.43384L6.99634 12.1875L7.55884 10.5Z" fill="black"/>
</svg>
