<svg width="24" height="24" viewBox="0 0 24 24" fill="none" xmlns="http://www.w3.org/2000/svg">
<g clip-path="url(#clip0_633_301)">
<path fill-rule="evenodd" clip-rule="evenodd" d="M23.4052 16.8648C22.8613 15.7693 22.1444 14.7684 21.2822 13.9008C20.9939 13.5749 20.6919 13.2613 20.3772 12.9608L20.3392 12.9238C20.2224 12.8107 20.1071 12.696 19.9932 12.5798C21.1719 10.9406 22.1804 9.18551 23.0032 7.3418L23.0362 7.2678L23.0592 7.1898C23.1682 6.8268 23.2922 6.1368 22.8522 5.5128C22.3962 4.8688 21.6672 4.7528 21.1782 4.7528H18.9312C18.4608 4.73136 17.9955 4.8593 17.6022 5.11831C17.2088 5.37732 16.9075 5.75413 16.7412 6.1948C16.2577 7.34644 15.6522 8.44302 14.9352 9.4658V6.8328C14.9352 6.4928 14.9032 5.9228 14.5382 5.4428C14.1022 4.8668 13.4712 4.7528 13.0332 4.7528H9.46724C9.00192 4.7421 8.5503 4.91076 8.20591 5.22388C7.86152 5.53699 7.65075 5.97056 7.61724 6.4348L7.61424 6.4798V6.5248C7.61424 7.0098 7.80624 7.3678 7.96024 7.5928C8.02924 7.6938 8.10224 7.7858 8.14924 7.8438L8.15924 7.8568C8.20924 7.9188 8.24224 7.9598 8.27524 8.0058C8.36324 8.1238 8.48824 8.3078 8.52424 8.7818V10.2548C7.80842 9.05612 7.22148 7.78504 6.77324 6.4628L6.76524 6.4408L6.75724 6.4198C6.63524 6.1008 6.44024 5.6368 6.04924 5.2828C5.59324 4.8678 5.05324 4.7528 4.56224 4.7528H2.28224C1.78524 4.7528 1.18624 4.8688 0.739244 5.3398C0.300244 5.8038 0.250244 6.3598 0.250244 6.6538V6.7878L0.278244 6.9178C0.909545 9.84858 2.21048 12.5935 4.07924 14.9378C4.93362 16.2851 6.09353 17.4121 7.46489 18.2273C8.83626 19.0425 10.3805 19.523 11.9722 19.6298L12.0132 19.6328H12.0552C12.7812 19.6328 13.5382 19.5698 14.1072 19.1908C14.8742 18.6788 14.9352 17.8938 14.9352 17.5018V16.3638C15.1322 16.5238 15.3762 16.7378 15.6752 17.0258C16.0372 17.3878 16.3252 17.7018 16.5722 17.9758L16.7042 18.1218C16.8962 18.3358 17.0852 18.5468 17.2572 18.7198C17.4732 18.9368 17.7402 19.1758 18.0742 19.3528C18.4372 19.5438 18.8182 19.6308 19.2222 19.6308H21.5032C21.9842 19.6308 22.6732 19.5168 23.1582 18.9548C23.6862 18.3428 23.6462 17.5918 23.4802 17.0528L23.4502 16.9558L23.4052 16.8648ZM17.6852 16.9708C17.3753 16.6244 17.0562 16.2862 16.7282 15.9568L16.7252 15.9538C15.3682 14.6458 14.7352 14.4188 14.2872 14.4188C14.0482 14.4188 13.7852 14.4448 13.6142 14.6588C13.5373 14.7609 13.4867 14.8804 13.4672 15.0068C13.4431 15.1535 13.4324 15.3021 13.4352 15.4508V17.5018C13.4352 17.7568 13.3932 17.8638 13.2752 17.9418C13.1182 18.0468 12.7832 18.1318 12.0642 18.1318C10.6985 18.0389 9.37422 17.6231 8.20042 16.9187C7.02662 16.2143 6.03677 15.2413 5.31224 14.0798L5.30424 14.0668L5.29424 14.0548C3.55336 11.888 2.34009 9.34605 1.75024 6.6298C1.75424 6.4998 1.78224 6.4208 1.82824 6.3728C1.87524 6.3228 1.99024 6.2528 2.28224 6.2528H4.56224C4.81524 6.2528 4.94724 6.3088 5.04224 6.3938C5.14824 6.4918 5.24224 6.6568 5.35424 6.9508C5.91424 8.5968 6.67024 10.1368 7.38724 11.2688C7.74524 11.8338 8.09724 12.3048 8.41524 12.6378C8.57424 12.8038 8.72924 12.9418 8.87824 13.0398C9.02124 13.1338 9.18424 13.2088 9.35224 13.2088C9.44024 13.2088 9.54324 13.1988 9.64224 13.1558C9.74916 13.1086 9.83718 13.0269 9.89224 12.9238C9.99524 12.7358 10.0242 12.4588 10.0242 12.0958V8.7228C9.97124 7.9048 9.72424 7.4438 9.48424 7.1168C9.43564 7.0514 9.38563 6.98705 9.33424 6.9238L9.32124 6.9078C9.2786 6.85601 9.2379 6.80264 9.19924 6.7478C9.15002 6.68665 9.12039 6.61207 9.11424 6.5338C9.12209 6.45434 9.16001 6.38088 9.22024 6.32846C9.28047 6.27603 9.35846 6.24861 9.43824 6.2518H13.0332C13.2392 6.2518 13.3082 6.3018 13.3432 6.3488C13.3932 6.4138 13.4352 6.5488 13.4352 6.8328V11.3608C13.4352 11.8988 13.6832 12.2628 14.0432 12.2628C14.4572 12.2628 14.7562 12.0118 15.2782 11.4898L15.2872 11.4798L15.2952 11.4708C16.4662 10.0431 17.4229 8.45238 18.1352 6.7488L18.1392 6.7368C18.1928 6.58629 18.2941 6.45742 18.4277 6.36985C18.5613 6.28228 18.7199 6.24082 18.8792 6.2518H21.1792C21.4912 6.2518 21.5932 6.3318 21.6272 6.3788C21.6622 6.4288 21.6872 6.5358 21.6272 6.7458C20.8058 8.58216 19.7904 10.3254 18.5982 11.9458L18.5902 11.9578C18.4752 12.1348 18.3482 12.3308 18.3302 12.5548C18.3102 12.7968 18.4142 13.0158 18.5972 13.2518C18.7302 13.4478 19.0052 13.7168 19.2842 13.9898L19.3102 14.0158C19.6022 14.3018 19.9192 14.6118 20.1732 14.9118L20.1802 14.9188L20.1872 14.9268C20.9447 15.6823 21.5745 16.5556 22.0522 17.5128C22.1282 17.7728 22.0822 17.9068 22.0222 17.9758C21.9532 18.0558 21.7982 18.1308 21.5042 18.1308H19.2222C19.0667 18.1346 18.9128 18.0984 18.7752 18.0258C18.6066 17.9277 18.4536 17.8051 18.3212 17.6618C18.1782 17.5188 18.0232 17.3458 17.8332 17.1348L17.6852 16.9708Z" fill="black"/>
</g>
<defs>
<clipPath id="clip0_633_301">
<rect width="24" height="24" fill="white" transform="translate(0.000244141)"/>
</clipPath>
</defs>
</svg>
